<?xml version="1.0" encoding="UTF-8"?>
<svg version="1.1" xmlns="http://www.w3.org/2000/svg" width="980" height="962" viewBox="0 0 980 982">
<path d="M0 0 C1.71177429 -0.00855011 1.71177429 -0.00855011 3.45812988 -0.01727295 C5.86839895 -0.02667043 8.27868057 -0.03323588 10.68896484 -0.03710938 C14.27856661 -0.04670083 17.86756616 -0.07772797 21.45703125 -0.109375 C42.8817458 -0.20823791 64.06829854 1.61944394 85.09375 5.828125 C86.36839111 6.08118408 87.64303223 6.33424316 88.95629883 6.5949707 C148.71504151 18.7824007 201.79895774 46.96671937 248.84375 85.203125 C252.55679996 81.55398296 255.96258753 77.77232433 259.29296875 73.77734375 C259.80472656 73.25785156 260.31648437 72.73835938 260.84375 72.203125 C261.50375 72.203125 262.16375 72.203125 262.84375 72.203125 C262.84375 71.543125 262.84375 70.883125 262.84375 70.203125 C263.50375 70.203125 264.16375 70.203125 264.84375 70.203125 C264.84375 69.543125 264.84375 68.883125 264.84375 68.203125 C265.50375 68.203125 266.16375 68.203125 266.84375 68.203125 C266.84375 67.543125 266.84375 66.883125 266.84375 66.203125 C267.50375 66.203125 268.16375 66.203125 268.84375 66.203125 C268.84375 65.543125 268.84375 64.883125 268.84375 64.203125 C270.3046875 62.6953125 270.3046875 62.6953125 272.21875 61.078125 C273.15847656 60.26988281 273.15847656 60.26988281 274.1171875 59.4453125 C275.84375 58.203125 275.84375 58.203125 277.84375 58.203125 C277.84375 57.543125 277.84375 56.883125 277.84375 56.203125 C280.07235753 54.2880595 282.30178144 52.51573505 284.65625 50.765625 C285.37256592 50.23283936 286.08888184 49.70005371 286.8269043 49.15112305 C295.10111551 43.12436048 303.82257326 38.0215907 312.84375 33.203125 C313.93816406 32.6138623 313.93816406 32.6138623 315.0546875 32.01269531 C352.84113172 12.01111631 396.21065109 5.85488629 438.28125 2.515625 C439.04733582 2.45468658 439.81342163 2.39374817 440.60272217 2.33096313 C461.92304111 0.66467722 483.18369275 0.05513188 504.56591797 0.08959961 C507.06174214 0.08988246 509.55756638 0.08972184 512.0533905 0.0891571 C517.37706004 0.08893143 522.70071421 0.09171596 528.02437973 0.09739494 C535.72104819 0.10559986 543.41771076 0.10813426 551.11438312 0.10938293 C563.60848537 0.1115595 576.10258101 0.11818134 588.59667969 0.12768555 C600.71744759 0.13689605 612.83821367 0.14395898 624.95898438 0.14819336 C625.70891434 0.14845608 626.4588443 0.14871881 627.23149942 0.14898949 C630.99451548 0.15029474 634.75753155 0.1515584 638.52054763 0.15280139 C669.62828656 0.16313048 700.73601726 0.18078583 731.84375 0.203125 C731.06383283 3.54389727 730.27801974 6.88325681 729.49121094 10.22241211 C729.16314957 11.6281461 729.16314957 11.6281461 728.82846069 13.06227875 C727.00054006 20.79948383 724.75193577 28.26858929 722.09375 35.765625 C721.6603833 36.99958008 721.2270166 38.23353516 720.78051758 39.50488281 C717.02278794 50.02515562 712.79870664 60.19377488 707.84375 70.203125 C707.35503418 71.19296387 706.86631836 72.18280273 706.36279297 73.20263672 C699.62150723 86.74126447 692.45311401 99.76449241 683.84375 112.203125 C683.42528809 112.81687988 683.00682617 113.43063477 682.57568359 114.06298828 C677.15540059 121.99567714 671.30061907 129.40834681 664.99609375 136.65625 C662.85173965 138.9906874 662.85173965 138.9906874 661.84375 141.203125 C661.18375 141.203125 660.52375 141.203125 659.84375 141.203125 C659.57006592 141.79754395 659.29638184 142.39196289 659.0144043 143.00439453 C657.88411583 145.12730964 656.74109926 146.62700679 655.11328125 148.3828125 C654.56542969 148.97481445 654.01757812 149.56681641 653.453125 150.17675781 C652.86015625 150.80420898 652.2671875 151.43166016 651.65625 152.078125 C651.03621094 152.73651367 650.41617188 153.39490234 649.77734375 154.07324219 C639.43600318 164.9389178 628.47604458 174.8588432 616.52587891 183.91943359 C614.87229431 185.18134184 613.2369029 186.46353157 611.60546875 187.75390625 C558.43935957 229.63965273 490.92238947 255.6492405 424.84375 268.203125 C433.37798935 272.86475661 444.38193431 273.56511891 453.84375 275.203125 C454.83777832 275.37553711 455.83180664 275.54794922 456.85595703 275.72558594 C504.61843124 283.46737198 554.82404275 278.30108994 602.14582825 270.14328003 C607.03640383 269.31097223 611.90527219 268.66330134 616.84375 268.203125 C611.48835154 291.70790793 604.3106198 314.45174309 593.84375 336.203125 C593.52583496 336.86924805 593.20791992 337.53537109 592.88037109 338.22167969 C590.62113839 342.92812793 588.26109635 347.57613847 585.84375 352.203125 C585.48087891 352.90373047 585.11800781 353.60433594 584.74414062 354.32617188 C575.48598478 372.06167524 564.13030192 388.25825156 550.84375 403.203125 C550.33126709 403.79955811 549.81878418 404.39599121 549.29077148 405.01049805 C538.24840071 417.82892558 526.2058194 429.98799579 512.51660156 439.97021484 C510.81703684 441.2228129 509.153879 442.51409042 507.4921875 443.81640625 C473.31186509 470.24245861 431.31940008 486.53427897 389.21875 494.890625 C388.16776123 495.10219238 387.11677246 495.31375977 386.03393555 495.53173828 C379.88653883 496.68849409 373.86279229 497.38747466 367.62890625 497.73046875 C354.43241334 497.94309411 354.43241334 497.94309411 342.81591797 502.86474609 C339.60258083 507.23246105 338.27442804 512.22872021 336.79931641 517.38378906 C335.03857173 522.57875062 332.17559418 527.1785599 329.40625 531.890625 C328.84607178 532.86628418 328.28589355 533.84194336 327.70874023 534.84716797 C319.9686269 548.30380601 311.77993098 561.03854892 302.28564453 573.32763672 C300.92358637 575.09928095 299.58155079 576.88403877 298.24609375 578.67578125 C293.57541047 584.90702439 288.68029398 590.763386 283.33374023 596.42285156 C280.78577266 599.09119141 280.78577266 599.09119141 278.84375 602.203125 C278.18375 602.203125 277.52375 602.203125 276.84375 602.203125 C276.57965332 602.79246826 276.31555664 603.38181152 276.04345703 603.98901367 C274.79797948 606.28759649 273.49822786 607.79252017 271.6484375 609.62890625 C271.01921387 610.25700195 270.38999023 610.88509766 269.74169922 611.53222656 C269.07412598 612.18674805 268.40655273 612.84126953 267.71875 613.515625 C267.03441895 614.19206055 266.35008789 614.86849609 265.64501953 615.56542969 C261.18088555 619.95411651 256.64820624 624.18869407 251.84375 628.203125 C250.50763672 629.37294922 250.50763672 629.37294922 249.14453125 630.56640625 C195.4922462 677.32709555 128.12517721 705.40216914 57.84375 714.203125 C56.93802246 714.32026855 56.03229492 714.43741211 55.09912109 714.55810547 C-29.60903408 725.06272836 -118.38060606 701.7883545 -188.15625 653.203125 C-188.70974121 652.81946777 -189.26323242 652.43581055 -189.83349609 652.04052734 C-197.90519564 646.4288167 -205.63630037 640.54347469 -213.15625 634.203125 C-214.59871094 633.03910156 -214.59871094 633.03910156 -216.0703125 631.8515625 C-224.51577643 624.94498547 -232.24460428 617.33057683 -239.96875 609.640625 C-240.50445618 609.11009521 -241.04016235 608.57956543 -241.59210205 608.03295898 C-248.586164 601.09219278 -255.0383182 593.94385038 -261.15625 586.203125 C-262.16878644 584.97141286 -263.18402182 583.74190945 -264.203125 582.515625 C-275.83207006 568.33634359 -286.10996841 553.15073144 -295.15625 537.203125 C-295.6188623 536.39004883 -296.08147461 535.57697266 -296.55810547 534.73925781 C-315.52649749 501.19736317 -328.85526623 465.63974712 -336.40625 427.828125 C-336.64053711 426.67280273 -336.87482422 425.51748047 -337.11621094 424.32714844 C-341.28197721 402.38664915 -342.71582126 380.37693328 -342.59375 358.078125 C-342.59070862 356.8872226 -342.58766724 355.69632019 -342.58453369 354.46932983 C-342.51173863 335.09953441 -341.60604237 316.28519647 -338.15625 297.203125 C-337.82681396 295.38022949 -337.82681396 295.38022949 -337.49072266 293.52050781 C-331.61835139 262.1596348 -321.84461792 232.00656809 -308.15625 203.203125 C-307.58849854 201.99390381 -307.58849854 201.99390381 -307.00927734 200.76025391 C-298.45754647 182.64708715 -288.39013531 165.09311396 -276.15625 149.203125 C-275.2450311 147.96788678 -274.33638898 146.73074545 -273.4296875 145.4921875 C-257.93232385 124.40519384 -240.19121164 104.11103273 -220.15625 87.203125 C-219.25003906 86.40777344 -218.34382813 85.61242187 -217.41015625 84.79296875 C-208.43823818 76.96857149 -198.91022636 70.01667706 -189.15625 63.203125 C-188.51961426 62.75582031 -187.88297852 62.30851562 -187.22705078 61.84765625 C-133.58599331 24.36667011 -65.74679619 0.26320673 0 0 Z M-53.15625 276.203125 C-53.96578125 276.86828125 -54.7753125 277.5334375 -55.609375 278.21875 C-75.77194393 295.3379123 -88.82133011 320.84983483 -91.15625 347.203125 C-92.72232254 377.51889664 -84.84091986 405.77305269 -64.66748047 428.91064453 C-45.08356301 450.47336009 -18.58114904 463.4103441 10.57324219 465.1171875 C40.15087378 466.23668495 67.58915672 455.49702135 89.38183594 435.58349609 C110.42108047 415.71778323 121.7095548 388.42083601 122.80078125 359.71875 C123.35849632 331.96492926 112.89301651 305.26798641 93.84375 285.203125 C92.62558594 283.86701172 92.62558594 283.86701172 91.3828125 282.50390625 C72.88089864 262.95414938 45.91357222 251.65439323 19.18041992 250.86889648 C-7.44557856 250.48620075 -32.86324289 258.56279856 -53.15625 276.203125 Z " transform="translate(332.15625, 180.203125)"/>
</svg>
