<?xml version="1.0" standalone="no"?>
<!DOCTYPE svg PUBLIC "-//W3C//DTD SVG 20010904//EN"
 "http://www.w3.org/TR/2001/REC-SVG-20010904/DTD/svg10.dtd">
<svg version="1.0" xmlns="http://www.w3.org/2000/svg"
 width="980.000000pt" height="962.000000pt" viewBox="0 0 980.000000 962.000000"
 preserveAspectRatio="xMidYMid meet">

<g transform="translate(0.000000,962.000000) scale(0.100000,-0.100000)"
 stroke="none">
<path d="M133 9594 c3 -10 198 -986 433 -2169 235 -1182 431 -2154 435 -2159
4 -5 1316 -82 2916 -172 1599 -90 2909 -163 2911 -164 8 -1 0 -60 -8 -60 -17
0 -5804 -480 -5820 -483 -11 -2 -136 -544 -506 -2187 -271 -1202 -491 -2186
-489 -2188 5 -5 9785 4922 9785 4929 0 5 -9594 4646 -9644 4665 -15 6 -17 3
-13 -12z"/>
</g>
</svg>
