<svg xmlns="http://www.w3.org/2000/svg" fill="none" viewBox="0 0 24 25" width="24" height="24">
    <path d="M8 9a1 1 0 0 0 0 2V9Zm7.5 2a1 1 0 1 0 0-2v2Zm-1.25 8.5v-1a1 1 0 0 0-.8.4l.8.6Zm-4.5 0 .8-.6a1 1 0 0 0-.8-.4v1Zm3.05 1.933.8.6-.8-.6Zm-1.6 0-.8.6.8-.6ZM11 13a1 1 0 1 0 0 2v-2Zm4.5 2a1 1 0 1 0 0-2v2ZM8 11h7.5V9H8v2ZM7 4.5h10v-2H7v2Zm13 3v8h2v-8h-2Zm-16 8v-8H2v8h2Zm9.45 3.4L12 20.833l1.6 1.2 1.45-1.933-1.6-1.2ZM12 20.833 10.55 18.9l-1.6 1.2 1.45 1.933 1.6-1.2Zm0 0-1.6 1.2a2 2 0 0 0 3.2 0l-1.6-1.2ZM2 15.5a5 5 0 0 0 5 5v-2a3 3 0 0 1-3-3H2Zm18 0a3 3 0 0 1-3 3v2a5 5 0 0 0 5-5h-2Zm-3-11a3 3 0 0 1 3 3h2a5 5 0 0 0-5-5v2Zm-10-2a5 5 0 0 0-5 5h2a3 3 0 0 1 3-3v-2Zm10 16h-2.75v2H17v-2Zm-7.25 0H7v2h2.75v-2ZM11 15h4.5v-2H11v2Z" fill="currentColor"></path>
</svg>
