<svg xmlns="http://www.w3.org/2000/svg" fill="none" viewBox="0 0 24 24" width="24" height="24">
    <path d="M20 10V7a2 2 0 0 0-2-2H6a2 2 0 0 0-2 2v3m16 0v9a2 2 0 0 1-2 2H6a2 2 0 0 1-2-2v-9m16 0H4m4-7v4m8-4v4" stroke="currentColor" stroke-width="2" stroke-linecap="round" fill="none"></path>
    <rect x="6" y="12" width="3" height="3" rx=".5" fill="currentColor"></rect>
    <rect x="10.5" y="12" width="3" height="3" rx=".5" fill="currentColor"></rect>
    <rect x="15" y="12" width="3" height="3" rx=".5" fill="currentColor"></rect>
</svg>
