<svg xmlns="http://www.w3.org/2000/svg" width="32" height="32" viewBox="0 0 83 58" >
<path  opacity="0.000000"
	d="
M1.000000,46.000000 
	C1.000000,31.095776 1.000000,16.191553 1.000000,1.000000 
	C8.685160,1.000000 16.373888,1.000000 24.478497,1.343807 
	C24.044279,2.205042 23.121099,2.632599 22.356104,3.254678 
	C17.843489,6.924242 16.358990,12.806374 18.561926,18.063665 
	C20.684025,23.128046 26.025696,26.367290 31.316715,25.798298 
	C37.148899,25.171110 41.860172,20.752724 42.653339,14.866558 
	C43.520912,8.428209 39.943508,4.303679 35.000000,1.000000 
	C51.256939,1.000000 67.513878,1.000000 84.000000,1.000000 
	C84.000000,15.686767 84.000000,30.374725 83.647675,45.568562 
	C72.334099,36.526138 60.001358,36.291386 47.069939,40.928131 
	C38.660931,43.943302 36.063099,49.522663 40.000000,59.000000 
	C36.969406,59.000000 33.938812,59.000000 30.535328,58.548531 
	C29.581879,49.056328 30.197233,40.479221 39.611408,34.812084 
	C34.965313,34.008343 30.794201,33.566517 26.750353,34.096230 
	C16.994593,35.374149 7.185192,36.863407 1.000000,46.000000 
M63.079311,29.881283 
	C69.547920,27.548870 72.533081,23.638878 71.902138,18.325083 
	C71.325920,13.472305 67.550941,9.577148 62.883747,9.019604 
	C57.006924,8.317555 51.689583,12.280927 51.005192,17.873489 
	C50.169044,24.706141 54.469868,29.319122 63.079311,29.881283 
z"/>
<path
	d="
M40.468658,59.000000 
	C36.063099,49.522663 38.660931,43.943302 47.069939,40.928131 
	C60.001358,36.291386 72.334099,36.526138 83.647675,46.037220 
	C84.000000,50.299793 84.000000,54.599586 84.000000,59.000000 
	C69.645905,59.000000 55.291611,59.000000 40.468658,59.000000 
z"/>
<path
	d="
M1.000000,46.476662 
	C7.185192,36.863407 16.994593,35.374149 26.750353,34.096230 
	C30.794201,33.566517 34.965313,34.008343 39.611408,34.812084 
	C30.197233,40.479221 29.581879,49.056328 30.081219,58.548531 
	C20.438927,59.000000 10.877852,59.000000 1.000000,59.000000 
	C1.000000,54.989994 1.000000,50.971657 1.000000,46.476662 
z"/>
<path
	d="
M34.545891,1.000000 
	C39.943508,4.303679 43.520912,8.428209 42.653339,14.866558 
	C41.860172,20.752724 37.148899,25.171110 31.316715,25.798298 
	C26.025696,26.367290 20.684025,23.128046 18.561926,18.063665 
	C16.358990,12.806374 17.843489,6.924242 22.356104,3.254678 
	C23.121099,2.632599 24.044279,2.205042 24.947187,1.343807 
	C28.030594,1.000000 31.061188,1.000000 34.545891,1.000000 
z"/>
<path
	d="
M62.680984,29.925385 
	C54.469868,29.319122 50.169044,24.706141 51.005192,17.873489 
	C51.689583,12.280927 57.006924,8.317555 62.883747,9.019604 
	C67.550941,9.577148 71.325920,13.472305 71.902138,18.325083 
	C72.533081,23.638878 69.547920,27.548870 62.680984,29.925385 
z"/>
</svg>